<svg xmlns="http://www.w3.org/2000/svg" aria-hidden="true" style="position:absolute;width:0;height:0;overflow:hidden">
  <defs>
    <symbol id="icon-car" viewBox="0 0 32 32">
      <path d="m32 17.545-5.743-6.484h-5.321V8.496h-6.348a7.661 7.661 0 0 0-6.935-4.421c-4.219 0-7.652 3.433-7.652 7.652a7.66 7.66 0 0 0 4.079 6.765v6.042h2.911c.078 1.882 1.633 3.39 3.534 3.39s3.456-1.508 3.534-3.39h7.963c.078 1.882 1.633 3.39 3.534 3.39s3.456-1.508 3.534-3.39h2.911v-6.99zM1.333 11.728c0-3.484 2.835-6.319 6.319-6.319s6.319 2.835 6.319 6.319-2.835 6.319-6.319 6.319-6.319-2.835-6.319-6.319zm9.191 14.863c-1.216 0-2.205-.989-2.205-2.205s.989-2.205 2.205-2.205c1.216 0 2.205.989 2.205 2.205s-.989 2.205-2.205 2.205zm9.079-3.39h-5.746c-.489-1.37-1.798-2.353-3.333-2.353s-2.845.983-3.333 2.353H5.412v-4.156a7.642 7.642 0 0 0 2.24.335c4.219 0 7.652-3.433 7.652-7.652 0-.655-.083-1.291-.238-1.898h4.537v13.371zm5.952 3.39c-1.216 0-2.205-.989-2.205-2.205s.989-2.205 2.205-2.205c1.216 0 2.205.989 2.205 2.205s-.989 2.205-2.205 2.205zm5.112-3.39h-1.778c-.488-1.37-1.798-2.353-3.333-2.353s-2.845.983-3.333 2.353h-1.286V12.394h4.721l5.009 5.656v5.15z"/>
      <path d="m10.643 12.698-2.324-1.354V6.893H6.986v5.218l2.986 1.74z"/>
    </symbol>
  </defs>
</svg>
